<svg xmlns="http://www.w3.org/2000/svg" fill="none" viewBox="0 0 320 354">
  <g fill="#E5DFCB" fill-opacity=".5" clip-path="url(#a)">
    <path d="M363 251.166c-21.861 5.418-43.723 10.857-55.845-6.297-12.101-17.155-14.442-56.903-29.113-68.262-14.693-11.36-41.675 5.69-57.601 2.322-15.926-3.368-20.775-27.133-21.339-48.095-.564-20.983 3.177-39.1207 2.717-53.1371-.46-14.0164-5.12-23.8697-20.774-36.1289C165.391 29.3089 138.743 14.6649 112.075 0H363v251.166Zm-418 20.668c20.273-1.527 40.5669-3.075 55.0715027 9.686C14.5761 294.261 23.2914 321.31 36.3121 333.193c13.0207 11.882 30.3259 8.619 52.6889 9.079 22.342.46 49.742 4.644 52.187 24.121 2.425 19.497-20.085 54.308-27.086 75.103-7.002 20.794 1.526 27.572 17.744 38.806 16.218 11.255 40.149 26.987 64.079 42.698H-55V271.834Z"/>
  </g>
  <g fill="#E94235" fill-opacity=".125" clip-path="url(#b)">
    <path d="M361 267.902c-18.413-17.72-36.847-35.439-61.551-37.949-24.724-2.511-55.74 10.188-69.806-2.218-14.065-12.405-11.202-49.936-29.427-66.797-18.225-16.841-57.537-13.013-71.018-26.987-13.46-13.975-1.108-45.7523-2.78-71.0446C124.746 37.6142 109.05 18.8071 93.3546 0H361v267.902Zm-418-12.804c20.0849 18.87 40.1698 37.74 58.7499 48.451C20.33 314.26 37.4053 316.812 61.294 317.921c23.8887 1.088 54.591.712 70.955 15.648 16.386 14.916 18.434 45.167 17.807 69.769-.627 24.602-3.929 43.597 5.727 62.592 9.656 19.017 32.249 38.033 54.862 57.07H-57V255.098Z"/>
  </g>
  <defs>
    <clipPath id="a">
      <path fill="#fff" d="M-55 0h418v354H-55z"/>
    </clipPath>
    <clipPath id="b">
      <path fill="#fff" d="M-57 0h418v354H-57z"/>
    </clipPath>
  </defs>
</svg>