<svg xmlns="http://www.w3.org/2000/svg" fill="none" viewBox="0 0 174 73">
  <path fill="#E94235" d="M43.892 36.1818c0 4.7585-.9019 8.8068-2.7059 12.1449-1.7898 3.3381-4.233 5.8878-7.3296 7.6492-3.0824 1.7471-6.5483 2.6207-10.3977 2.6207-3.8778 0-7.3579-.8807-10.4403-2.6421-3.08242-1.7613-5.5185-4.311-7.30827-7.6491-1.78978-3.3381-2.68466-7.3793-2.68466-12.1236 0-4.7585.89488-8.8068 2.68466-12.1449 1.78977-3.338 4.22585-5.8807 7.30827-7.6278 3.0824-1.7614 6.5625-2.6421 10.4403-2.6421 3.8494 0 7.3153.8807 10.3977 2.6421 3.0966 1.7471 5.5398 4.2898 7.3296 7.6278 1.804 3.3381 2.7059 7.3864 2.7059 12.1449Zm-9.3536 0c0-3.0824-.4617-5.6818-1.385-7.7983-.9091-2.1165-2.1946-3.7216-3.8565-4.8153-1.662-1.0938-3.608-1.6406-5.8381-1.6406-2.2301 0-4.1761.5468-5.8381 1.6406-1.6619 1.0937-2.9545 2.6988-3.8778 4.8153-.9091 2.1165-1.3636 4.7159-1.3636 7.7983s.4545 5.6818 1.3636 7.7983c.9233 2.1165 2.2159 3.7216 3.8778 4.8154 1.662 1.0937 3.608 1.6406 5.8381 1.6406 2.2301 0 4.1761-.5469 5.8381-1.6406 1.6619-1.0938 2.9474-2.6989 3.8565-4.8154.9233-2.1165 1.385-4.7159 1.385-7.7983ZM66.195 58H50.7262V14.3636h15.5966c4.3892 0 8.1676.8736 11.3352 2.6208 3.1676 1.7329 5.6037 4.2258 7.3083 7.4787 1.7187 3.2528 2.5781 7.1449 2.5781 11.6761 0 4.5455-.8594 8.4517-2.5781 11.7188-1.7046 3.267-4.1549 5.7741-7.3509 7.5213C74.4336 57.1264 70.6268 58 66.195 58Zm-6.2429-7.9048h5.8593c2.7273 0 5.0213-.483 6.8821-1.4489 1.875-.9801 3.2813-2.4929 4.2188-4.5383.9517-2.0597 1.4275-4.716 1.4275-7.9688 0-3.2244-.4758-5.8594-1.4275-7.9048-.9375-2.0455-2.3367-3.5512-4.1975-4.5171-1.8608-.9659-4.1548-1.4488-6.8821-1.4488h-5.8806v27.8267Z"/>
  <mask id="a" fill="#fff">
    <path d="M108.114 52V34.5455h2.113V50.125h8.114V52h-10.227Zm15.317 0h-2.216l6.409-17.4545h2.182L136.215 52h-2.216l-5.216-14.6932h-.136L123.431 52Zm.818-6.8182h8.932v1.875h-8.932v-1.875ZM138.934 52V34.5455h6.102c1.216 0 2.219.2102 3.009.6306.79.4148 1.378.9745 1.764 1.679.386.6989.579 1.4744.579 2.3267 0 .75-.133 1.3693-.4 1.858-.261.4886-.608.875-1.04 1.1591-.426.2841-.889.4943-1.389.6306V43c.534.0341 1.071.2216 1.611.5625s.991.8295 1.355 1.4659c.363.6364.545 1.4148.545 2.3352 0 .875-.199 1.662-.596 2.3608-.398.6989-1.026 1.2529-1.884 1.662-.858.4091-1.974.6136-3.349.6136h-6.307Zm2.114-1.875h4.193c1.38 0 2.361-.267 2.94-.8011.585-.5398.878-1.1932.878-1.9603 0-.5909-.151-1.1363-.452-1.6363-.301-.5057-.73-.9091-1.287-1.2103-.557-.3068-1.216-.4602-1.977-.4602h-4.295v6.0682Zm0-7.9091h3.92c.636 0 1.21-.125 1.722-.375.517-.25.926-.6023 1.227-1.0568.307-.4546.46-.9886.46-1.6023 0-.767-.267-1.4176-.801-1.9517-.534-.5398-1.381-.8096-2.54-.8096h-3.988v5.7954Zm23.041-3.3068c-.102-.8636-.517-1.5341-1.245-2.0114-.727-.4772-1.619-.7159-2.676-.7159-.772 0-1.449.125-2.028.375-.574.25-1.023.5938-1.347 1.0313-.318.4375-.477.9346-.477 1.4914 0 .466.111.8665.332 1.2017.228.3296.517.6052.87.8268.352.2159.721.3948 1.108.5369.386.1363.741.2471 1.065.3324l1.773.4772c.454.1194.96.2841 1.517.4944.562.2102 1.099.4971 1.611.8608.517.3579.943.8181 1.278 1.3806.335.5625.503 1.2529.503 2.0711 0 .9431-.247 1.7954-.742 2.5568-.488.7613-1.204 1.3665-2.147 1.8153-.938.4489-2.077.6733-3.418.6733-1.25 0-2.332-.2017-3.247-.6051-.909-.4034-1.625-.9659-2.148-1.6875-.517-.7216-.809-1.5597-.878-2.5142h2.182c.057.6591.279 1.2045.665 1.6364.392.4261.886.7443 1.483.9545.602.2046 1.25.3068 1.943.3068.807 0 1.531-.1307 2.173-.392.642-.2671 1.151-.6364 1.526-1.108.375-.4772.562-1.0341.562-1.6704 0-.5796-.162-1.0512-.485-1.4148-.324-.3636-.75-.6591-1.279-.8864-.528-.2272-1.099-.4261-1.713-.5966l-2.148-.6136c-1.363-.392-2.443-.9517-3.238-1.679-.796-.7272-1.193-1.6789-1.193-2.8551 0-.9773.264-1.8295.792-2.5568.534-.733 1.25-1.3011 2.148-1.7045.903-.4091 1.912-.6137 3.026-.6137 1.125 0 2.125.2017 3 .6051.875.3978 1.568.9432 2.079 1.6364.517.6932.79 1.4801.818 2.3608h-2.045Z"/>
  </mask>
  <path fill="#E94235" d="M108.114 52V34.5455h2.113V50.125h8.114V52h-10.227Zm15.317 0h-2.216l6.409-17.4545h2.182L136.215 52h-2.216l-5.216-14.6932h-.136L123.431 52Zm.818-6.8182h8.932v1.875h-8.932v-1.875ZM138.934 52V34.5455h6.102c1.216 0 2.219.2102 3.009.6306.79.4148 1.378.9745 1.764 1.679.386.6989.579 1.4744.579 2.3267 0 .75-.133 1.3693-.4 1.858-.261.4886-.608.875-1.04 1.1591-.426.2841-.889.4943-1.389.6306V43c.534.0341 1.071.2216 1.611.5625s.991.8295 1.355 1.4659c.363.6364.545 1.4148.545 2.3352 0 .875-.199 1.662-.596 2.3608-.398.6989-1.026 1.2529-1.884 1.662-.858.4091-1.974.6136-3.349.6136h-6.307Zm2.114-1.875h4.193c1.38 0 2.361-.267 2.94-.8011.585-.5398.878-1.1932.878-1.9603 0-.5909-.151-1.1363-.452-1.6363-.301-.5057-.73-.9091-1.287-1.2103-.557-.3068-1.216-.4602-1.977-.4602h-4.295v6.0682Zm0-7.9091h3.92c.636 0 1.21-.125 1.722-.375.517-.25.926-.6023 1.227-1.0568.307-.4546.46-.9886.46-1.6023 0-.767-.267-1.4176-.801-1.9517-.534-.5398-1.381-.8096-2.54-.8096h-3.988v5.7954Zm23.041-3.3068c-.102-.8636-.517-1.5341-1.245-2.0114-.727-.4772-1.619-.7159-2.676-.7159-.772 0-1.449.125-2.028.375-.574.25-1.023.5938-1.347 1.0313-.318.4375-.477.9346-.477 1.4914 0 .466.111.8665.332 1.2017.228.3296.517.6052.87.8268.352.2159.721.3948 1.108.5369.386.1363.741.2471 1.065.3324l1.773.4772c.454.1194.96.2841 1.517.4944.562.2102 1.099.4971 1.611.8608.517.3579.943.8181 1.278 1.3806.335.5625.503 1.2529.503 2.0711 0 .9431-.247 1.7954-.742 2.5568-.488.7613-1.204 1.3665-2.147 1.8153-.938.4489-2.077.6733-3.418.6733-1.25 0-2.332-.2017-3.247-.6051-.909-.4034-1.625-.9659-2.148-1.6875-.517-.7216-.809-1.5597-.878-2.5142h2.182c.057.6591.279 1.2045.665 1.6364.392.4261.886.7443 1.483.9545.602.2046 1.25.3068 1.943.3068.807 0 1.531-.1307 2.173-.392.642-.2671 1.151-.6364 1.526-1.108.375-.4772.562-1.0341.562-1.6704 0-.5796-.162-1.0512-.485-1.4148-.324-.3636-.75-.6591-1.279-.8864-.528-.2272-1.099-.4261-1.713-.5966l-2.148-.6136c-1.363-.392-2.443-.9517-3.238-1.679-.796-.7272-1.193-1.6789-1.193-2.8551 0-.9773.264-1.8295.792-2.5568.534-.733 1.25-1.3011 2.148-1.7045.903-.4091 1.912-.6137 3.026-.6137 1.125 0 2.125.2017 3 .6051.875.3978 1.568.9432 2.079 1.6364.517.6932.79 1.4801.818 2.3608h-2.045Z"/>
  <path fill="#E94235" d="M108.114 52h-2v2h2v-2Zm0-17.4545v-2h-2v2h2Zm2.113 0h2v-2h-2v2Zm0 15.5795h-2v2h2v-2Zm8.114 0h2v-2h-2v2Zm0 1.875v2h2v-2h-2Zm-10.227 0h2V34.5455h-4V52h2Zm0-17.4545v2h2.113v-4h-2.113v2Zm2.113 0h-2V50.125h4V34.5455h-2Zm0 15.5795v2h8.114v-4h-8.114v2Zm8.114 0h-2V52h4v-1.875h-2Zm0 1.875v-2h-10.227v4h10.227v-2Zm5.09 0v2h1.412l.473-1.3309L123.431 52Zm-2.216 0-1.877-.6894L118.35 54h2.865v-2Zm6.409-17.4545v-2h-1.396l-.481 1.3106 1.877.6894Zm2.182 0 1.878-.6894-.482-1.3106h-1.396v2ZM136.215 52v2h2.865l-.987-2.6894-1.878.6894Zm-2.216 0-1.884.6691.472 1.3309h1.412v-2Zm-5.216-14.6932 1.885-.6691-.472-1.3309h-1.413v2Zm-.136 0v-2h-1.412l-.473 1.3309 1.885.6691Zm-4.398 7.875v-2h-2v2h2Zm8.932 0h2v-2h-2v2Zm0 1.875v2h2v-2h-2Zm-8.932 0h-2v2h2v-2ZM123.431 52v-2h-2.216v4h2.216v-2Zm-2.216 0 1.878.6894 6.409-17.4546-1.878-.6893-1.877-.6894-6.409 17.4545 1.877.6894Zm6.409-17.4545v2h2.182v-4h-2.182v2Zm2.182 0-1.877.6893 6.409 17.4546L136.215 52l1.878-.6894-6.409-17.4545-1.878.6894ZM136.215 52v-2h-2.216v4h2.216v-2Zm-2.216 0 1.885-.6691-5.216-14.6932-1.885.6691-1.884.6691 5.216 14.6932L133.999 52Zm-5.216-14.6932v-2h-.136v4h.136v-2Zm-.136 0-1.885-.6691-5.216 14.6932 1.885.6691 1.885.6691 5.216-14.6932-1.885-.6691Zm-4.398 7.875v2h8.932v-4h-8.932v2Zm8.932 0h-2v1.875h4v-1.875h-2Zm0 1.875v-2h-8.932v4h8.932v-2Zm-8.932 0h2v-1.875h-4v1.875h2ZM138.934 52h-2v2h2v-2Zm0-17.4545v-2h-2v2h2Zm9.111.6306-.94 1.7655.01.0052.93-1.7707Zm1.764 1.679-1.754.9617.004.006 1.75-.9677Zm.179 4.1847-1.755-.9592-.004.0079-.005.008 1.764.9433Zm-1.04 1.1591-1.099-1.6709-.01.0068 1.109 1.6641Zm-1.389.6306-.526-1.9295-1.474.402v1.5275h2Zm0 .1705h-2v1.8764l1.873.1195.127-1.9959Zm1.611.5625-1.068 1.691 1.068-1.691Zm1.304 6.1619 1.738.9893-1.738-.9893Zm-1.884 1.662-.861-1.8053.861 1.8053Zm-7.542-1.2614h-2v2h2v-2Zm7.133-.8011 1.355 1.4707.001-.0006-1.356-1.4701Zm.426-3.5966-1.718 1.0233.005.0085 1.713-1.0318Zm-1.287-1.2103-.965 1.7517.007.0038.007.0038.951-1.7593Zm-6.272-.4602v-2h-2v2h2Zm0-1.8409h-2v2h2v-2Zm5.642-.375-.871-1.8006-.008.0038.879 1.7968Zm1.227-1.0568-1.658-1.119-.005.0072-.004.0072 1.667 1.1046Zm-.341-3.554-1.422 1.4067.008.0075 1.414-1.4142Zm-6.528-.8096v-2h-2v2h2ZM138.934 52h2V34.5455h-4V52h2Zm0-17.4545v2h6.102v-4h-6.102v2Zm6.102 0v2c1.001 0 1.654.1749 2.069.396l.94-1.7654.94-1.7654c-1.165-.6198-2.517-.8652-3.949-.8652v2Zm3.009.6306-.93 1.7707c.481.2529.764.5476.94.87l1.754-.9617 1.754-.9617c-.596-1.0867-1.49-1.9112-2.588-2.4879l-.93 1.7706Zm1.764 1.679-1.75.9677c.211.3827.329.8217.329 1.359h4c0-1.1672-.268-2.2793-.829-3.2943l-1.75.9676Zm.579 2.3267h-2c0 .5263-.095.7887-.155.8988l1.755.9592 1.755.9591c.474-.8671.645-1.8434.645-2.8171h-2Zm-.4 1.858-1.764-.9433c-.115.2163-.242.3439-.375.4315l1.099 1.6709 1.099 1.6708c.731-.4805 1.297-1.1257 1.704-1.8866l-1.763-.9433Zm-1.04 1.1591-1.109-1.6641c-.245.1634-.511.2847-.806.3652l.526 1.9295.526 1.9296c.705-.1923 1.365-.4914 1.973-.8961l-1.11-1.6641Zm-1.389.6306h-2V43h4v-.1705h-2Zm0 .1705-.127 1.9959c.141.009.359.061.67.2576l1.068-1.691 1.068-1.691c-.769-.4852-1.625-.8083-2.552-.8674L147.559 43Zm1.611.5625-1.068 1.691c.224.1418.461.3725.686.7672l1.737-.9923 1.736-.9923c-.501-.878-1.168-1.6246-2.023-2.1646l-1.068 1.691Zm1.355 1.4659-1.737.9923c.152.2661.282.6828.282 1.3429h4c0-1.1807-.233-2.3209-.809-3.3275l-1.736.9923Zm.545 2.3352h-2c0 .5596-.123 1.0004-.335 1.3716l1.739.9892 1.738.9893c.584-1.0266.858-2.1597.858-3.3501h-2Zm-.596 2.3608-1.739-.9892c-.16.2826-.448.5799-1.006.8459l.861 1.8053.861 1.8052c1.158-.5522 2.126-1.3628 2.761-2.4779l-1.738-.9893Zm-1.884 1.662-.861-1.8053c-.496.2368-1.288.4189-2.488.4189v4c1.55 0 2.991-.227 4.21-.8084l-.861-1.8052ZM145.241 52v-2h-6.307v4h6.307v-2Zm-4.193-1.875v2h4.193v-4h-4.193v2Zm4.193 0v2c1.538 0 3.154-.2782 4.295-1.3304l-1.355-1.4707-1.355-1.4707c.004-.0039-.073.069-.34.1419-.27.0735-.674.1299-1.245.1299v2Zm2.94-.8011 1.356 1.4701c.978-.9021 1.522-2.0813 1.522-3.4304h-4c0 .1851-.042.3127-.234.4901l1.356 1.4702Zm.878-1.9603h2c0-.9497-.247-1.8526-.738-2.6682l-1.714 1.0319-1.713 1.0318c.111.1845.165.3725.165.6045h2Zm-.452-1.6363 1.719-1.0233c-.5-.8391-1.205-1.4868-2.054-1.9462l-.952 1.7592-.951 1.7593c.264.1429.417.302.52.4743l1.718-1.0233Zm-1.287-1.2103.966-1.7516c-.906-.4991-1.911-.7086-2.943-.7086v4c.49 0 .804.0973 1.012.2119l.965-1.7517Zm-1.977-.4602v-2h-4.295v4h4.295v-2Zm-4.295 0h-2v6.0682h4v-6.0682h-2Zm0-1.8409v2h3.92v-4h-3.92v2Zm3.92 0v2c.905 0 1.784-.1794 2.6-.5782l-.878-1.7968-.879-1.7968c-.207.1013-.475.1718-.843.1718v2Zm1.722-.375.87 1.8006c.823-.3976 1.514-.9828 2.024-1.7528l-1.667-1.1046-1.667-1.1046c-.093.1391-.219.2584-.431.3608l.871 1.8006Zm1.227-1.0568 1.658 1.1189c.556-.8236.802-1.758.802-2.7212h-4c0 .2641-.06.3979-.118.4833l1.658 1.119Zm.46-1.6023h2c0-1.2882-.471-2.4502-1.387-3.3659l-1.414 1.4142-1.414 1.4142c.152.1526.215.2917.215.5375h2Zm-.801-1.9517 1.422-1.4067c-1.068-1.0789-2.545-1.4029-3.962-1.4029v4c.902 0 1.118.2156 1.118.2163l1.422-1.4067Zm-2.54-.8096v-2h-3.988v4h3.988v-2Zm-3.988 0h-2v5.7954h4v-5.7954h-2Zm23.041 2.4886-1.986.2352.209 1.7648h1.777v-2Zm-1.245-2.0114-1.097 1.6721 1.097-1.6721Zm-4.704-.3409-.792-1.8364-.007.0029.799 1.8335Zm-1.347 1.0313-1.607-1.19-.005.0068-.005.0068 1.617 1.1764Zm-.145 2.6931-1.668 1.1029.011.0164.011.0162 1.646-1.1355Zm.87.8268-1.065 1.6929.01.0062.01.0061 1.045-1.7052Zm1.108.5369-.69 1.8771.012.0045.012.0044.666-1.886Zm1.065.3324.52-1.9313-.011-.0029-.509 1.9342Zm1.773.4772-.52 1.9313.012.0032.508-1.9345Zm1.517.4944-.707 1.8711.007.0023.7-1.8734Zm1.611.8608-1.159 1.6299.01.0073.01.0071 1.139-1.6443Zm1.278 1.3806 1.718-1.0238-1.718 1.0238Zm-.239 4.6279-1.677-1.0891-.006.0088 1.683 1.0803Zm-2.147 1.8153-.86-1.8059-.004.002.864 1.8039Zm-6.665.0682-.811 1.8281.004.0019.807-1.83Zm-2.148-1.6875-1.626 1.1649.006.0084 1.62-1.1733Zm-.878-2.5142v-2h-2.148l.153 2.1425 1.995-.1425Zm2.182 0 1.993-.1718-.158-1.8282h-1.835v2Zm.665 1.6364-1.491 1.3336.01.0103.009.0102 1.472-1.3541Zm1.483.9545-.665 1.8863.011.0038.011.0037.643-1.8938Zm4.116-.0852.754 1.8524.007-.0029.007-.0029-.768-1.8466Zm1.526-1.108 1.565 1.2448.008-.0091-1.573-1.2357Zm.077-3.0852 1.493-1.3302-1.493 1.3302Zm-1.279-.8864-.79 1.8373.79-1.8373Zm-1.713-.5966-.549 1.9231.007.002.007.002.535-1.9271Zm-2.148-.6136-.552 1.9221.003.001.549-1.9231Zm-3.238-1.679-1.35 1.4761 1.35-1.4761Zm-.401-5.4119-1.616-1.1778-.002.0022 1.618 1.1756Zm2.148-1.7045.82 1.8242.005-.0023-.825-1.8219Zm6.026-.0086-.838 1.8163.01.0045.828-1.8208Zm2.079 1.6364-1.609 1.1873.006.0085 1.603-1.1958Zm.818 2.3608v2h2.066l-.067-2.0645-1.999.0645Zm-2.045 0 1.986-.2352c-.172-1.4506-.912-2.6469-2.133-3.4483l-1.098 1.6721-1.097 1.6721c.234.1532.323.2978.356.5745l1.986-.2352Zm-1.245-2.0114 1.098-1.6721c-1.118-.7333-2.412-1.0438-3.774-1.0438v4c.752 0 1.242.1668 1.579.388l1.097-1.6721Zm-2.676-.7159v-2c-.985 0-1.941.1594-2.82.5386l.792 1.8364.792 1.8364c.28-.1207.677-.2114 1.236-.2114v-2Zm-2.028.375-.799-1.8335c-.846.3686-1.593.9157-2.155 1.6748l1.607 1.19 1.608 1.1899c.086-.1158.236-.2563.538-.3876l-.799-1.8336Zm-1.347 1.0313-1.617-1.1764c-.575.7899-.86 1.7016-.86 2.6678h4c0-.1473.033-.23.095-.3151l-1.618-1.1763Zm-.477 1.4914h-2c0 .7941.193 1.5926.664 2.3046l1.668-1.1029 1.669-1.1028c.009.0134.011.0228.01.0178-.002-.0071-.011-.0424-.011-.1167h-2Zm.332 1.2017-1.646 1.1355c.387.5618.878 1.024 1.451 1.3842l1.065-1.6929 1.065-1.693c-.132-.0829-.221-.1719-.288-.2692l-1.647 1.1354Zm.87.8268-1.045 1.7052c.464.2845.952.5211 1.463.7088l.69-1.8771.69-1.8772c-.262-.0964-.513-.2177-.753-.3649l-1.045 1.7052Zm1.108.5369-.666 1.886c.427.1507.835.2787 1.222.3805l.509-1.9341.509-1.9342c-.261-.0686-.563-.1622-.909-.2842l-.665 1.886Zm1.065.3324-.52 1.9312 1.773.4773.52-1.9313.52-1.9312-1.773-.4773-.52 1.9313Zm1.773.4772-.508 1.9345c.372.0978.81.2392 1.318.4309l.707-1.871.706-1.8711c-.605-.2287-1.179-.4168-1.715-.5577l-.508 1.9344Zm1.517.4944-.7 1.8734c.392.1467.776.3499 1.152.6173l1.159-1.6299 1.159-1.63c-.647-.4598-1.337-.8305-2.07-1.1043l-.7 1.8735Zm1.611.8608-1.139 1.6443c.272.1883.504.4333.699.7602l1.718-1.0239 1.718-1.0238c-.476-.7981-1.096-1.4736-1.858-2.0012l-1.138 1.6444Zm1.278 1.3806-1.718 1.0239c.11.1844.221.5003.221 1.0472h4c0-1.0896-.224-2.1543-.785-3.0949l-1.718 1.0238Zm.503 2.0711h-2c0 .5725-.144 1.0436-.419 1.4677l1.677 1.0891 1.678 1.0891c.713-1.0987 1.064-2.3321 1.064-3.6459h-2Zm-.742 2.5568-1.683-1.0803c-.257.4013-.664.7759-1.324 1.0897l.86 1.8059.859 1.8059c1.227-.5839 2.252-1.4195 2.972-2.541l-1.684-1.0802Zm-2.147 1.8153-.864-1.8039c-.601.288-1.428.4772-2.554.4772v4c1.556 0 3.008-.2596 4.281-.8694l-.863-1.8039Zm-3.418.6733v-2c-1.039 0-1.835-.1681-2.44-.4351l-.807 1.83-.807 1.83c1.224.5398 2.594.7751 4.054.7751v-2Zm-3.247-.6051.811-1.8281c-.625-.2773-1.047-.629-1.339-1.0327l-1.62 1.1733-1.62 1.1733c.754 1.0395 1.763 1.8128 2.957 2.3423l.811-1.8281Zm-2.148-1.6875 1.626-1.1649c-.285-.398-.465-.8757-.509-1.4918l-1.995.1425-1.995.1425c.093 1.293.499 2.4914 1.247 3.5366l1.626-1.1649Zm-.878-2.5142v2h2.182v-4h-2.182v2Zm2.182 0-1.992.1718c.088 1.0266.451 1.9989 1.166 2.7982l1.491-1.3336 1.49-1.3336c-.057-.0645-.137-.1831-.162-.4746l-1.993.1718Zm.665 1.6364-1.472 1.3541c.634.6886 1.414 1.178 2.29 1.4867l.665-1.8863.665-1.8863c-.318-.1118-.526-.2587-.676-.4223l-1.472 1.3541Zm1.483.9545-.643 1.8938c.827.2809 1.694.413 2.586.413v-4c-.494 0-.923-.0724-1.3-.2006l-.643 1.8938Zm1.943.3068v2c1.024 0 2.01-.1662 2.927-.5396l-.754-1.8524-.754-1.8524c-.366.1493-.829.2444-1.419.2444v2Zm2.173-.392.768 1.8466c.906-.3768 1.707-.935 2.323-1.7098l-1.565-1.2448-1.565-1.2448c-.134.1685-.35.3488-.729.5061l.768 1.8467Zm1.526-1.108 1.573 1.2357c.665-.8476.989-1.845.989-2.9061h-4c0 .2116-.051.3278-.135.4348l1.573 1.2356Zm.562-1.6704h2c0-.9717-.282-1.9477-.992-2.745l-1.493 1.3302-1.494 1.3302c-.007-.0084-.016-.0193-.023-.0317-.007-.0122-.01-.0207-.011-.0226-.001-.004.013.035.013.1389h2Zm-.485-1.4148 1.493-1.3302c-.55-.6181-1.233-1.0713-1.982-1.3934l-.79 1.8372-.79 1.8373c.308.1324.478.2701.575.3793l1.494-1.3302Zm-1.279-.8864.79-1.8372c-.619-.2665-1.276-.4943-1.968-.6864l-.535 1.927-.535 1.9271c.536.1488 1.021.3187 1.458.5068l.79-1.8373Zm-1.713-.5966.55-1.923-2.148-.6136-.55 1.923-.549 1.9231 2.148.6136.549-1.9231Zm-2.148-.6136.553-1.9221c-1.157-.3327-1.934-.769-2.442-1.2329l-1.349 1.476-1.35 1.4761c1.084.9906 2.466 1.6736 4.036 2.125l.552-1.9221Zm-3.238-1.679 1.349-1.476c-.34-.3114-.542-.7072-.542-1.3791h-4c0 1.6804.593 3.1881 1.843 4.3312l1.35-1.4761Zm-1.193-2.8551h2c0-.5937.152-1.0258.41-1.3812l-1.618-1.1756-1.618-1.1756c-.798 1.0991-1.174 2.3716-1.174 3.7324h2Zm.792-2.5568 1.617 1.1778c.312-.4282.742-.7847 1.351-1.0581l-.82-1.8242-.82-1.8243c-1.187.5334-2.188 1.3132-2.944 2.351l1.616 1.1778Zm2.148-1.7045.825 1.8219c.614-.2781 1.336-.4356 2.201-.4356v-4c-1.364 0-2.658.2516-3.851.7917l.825 1.822Zm3.026-.6137v2c.883 0 1.59.1577 2.162.4214l.838-1.8163.837-1.8162c-1.178-.5431-2.471-.7889-3.837-.7889v2Zm3 .6051-.828 1.8208c.601.2733 1.011.6147 1.298 1.0029l1.609-1.1873 1.61-1.1873c-.737-.9982-1.713-1.7477-2.862-2.2698l-.827 1.8207Zm2.079 1.6364-1.603 1.1958c.268.3588.407.7492.422 1.2295l1.999-.0645 1.999-.0645c-.041-1.2811-.447-2.4646-1.214-3.4921l-1.603 1.1958Zm.818 2.3608v-2h-2.045v4h2.045v-2Z" mask="url(#a)"/>
  <rect width="73" height="29" x="100" y="28" stroke="#E94235" stroke-width="2" rx="1"/>
</svg>